<svg xmlns="http://www.w3.org/2000/svg" width="202.886" height="252.566" viewBox="0 0 202.886 252.566">
  <g id="Grupo_216" data-name="Grupo 216" transform="translate(-55.728 -208.33)">
    <g id="Grupo_215" data-name="Grupo 215" transform="translate(55.728 208.33)">
      <g id="Grupo_212" data-name="Grupo 212" transform="translate(0 0)">
        <path id="Caminho_387" data-name="Caminho 387" d="M288.432,139.495h-1.459V101.479c0-12.152-10.359-22-23.138-22h-84.7c-12.779,0-23.138,9.851-23.138,22v208.56c0,12.152,10.359,22,23.138,22h84.7c12.779,0,23.138-9.851,23.138-22V166.555h1.459Z" transform="translate(-156 -79.476)" fill="#e6e6e6"/>
        <path id="Caminho_388" data-name="Caminho 388" d="M279.738,96.107H268.281a7.456,7.456,0,0,1-.816,7.409,8.694,8.694,0,0,1-7.06,3.5H210.123a8.694,8.694,0,0,1-7.06-3.5,7.456,7.456,0,0,1-.817-7.409h-10.7c-9.889,0-17.906,7.463-17.906,16.67V324.057c0,9.207,8.017,16.67,17.906,16.67h88.192c9.889,0,17.906-7.464,17.906-16.67V112.778c0-9.207-8.017-16.67-17.906-16.67Z" transform="translate(-169.426 -92.134)" fill="#fff"/>
        <path id="Caminho_391" data-name="Caminho 391" d="M253.926,292.166h-6.973a.716.716,0,0,0-.708.825l1.054,6.85h6.051l1.28-6.827a.716.716,0,0,0-.7-.848Z" transform="translate(-212.395 -217.936)" fill="#fff"/>
        <path id="Caminho_395" data-name="Caminho 395" d="M244.194,581.733H242.6a.211.211,0,0,0-.211.211v.7a.211.211,0,0,0,.211.211h.264V583.9h1.064v-1.046h.264a.211.211,0,0,0,.211-.211v-.7A.211.211,0,0,0,244.194,581.733Z" transform="translate(-210.873 -408.202)" fill="#e6e6e6"/>
        <path id="Caminho_397" data-name="Caminho 397" d="M275.194,581.733H273.6a.211.211,0,0,0-.211.211v.7a.211.211,0,0,0,.211.211h.264V583.9h1.064v-1.046h.264a.211.211,0,0,0,.211-.211v-.7A.211.211,0,0,0,275.194,581.733Z" transform="translate(-230.563 -408.202)" fill="#e6e6e6"/>
        <path id="Caminho_399" data-name="Caminho 399" d="M306.194,581.733H304.6a.211.211,0,0,0-.211.211v.7a.211.211,0,0,0,.211.211h.264V583.9h1.064v-1.046h.264a.211.211,0,0,0,.211-.211v-.7A.211.211,0,0,0,306.194,581.733Z" transform="translate(-250.253 -408.202)" fill="#e6e6e6"/>
        <circle id="Elipse_54" data-name="Elipse 54" cx="4.817" cy="4.817" r="4.817" transform="translate(72.316 63.692)" fill="#fff"/>
      </g>
      <g id="Grupo_209" data-name="Grupo 209" transform="translate(18.871 61.921)">
        <ellipse id="Elipse_34" data-name="Elipse 34" cx="92.008" cy="7.188" rx="92.008" ry="7.188" transform="translate(0 135.662)" fill="#3f3d56"/>
        <path id="Caminho_332" data-name="Caminho 332" d="M761.149,582.463l.862,6.324-6.036.575.862-7.761Z" transform="translate(-590.986 -452.967)" fill="#a0616a"/>
        <path id="Caminho_333" data-name="Caminho 333" d="M808.558,303.812s.575,7.761.575,8.049-4.024,20.122-4.024,20.122-5.749,10.923,0,10.636,4.024-10.348,4.024-10.348l6.036-16.672-2.587-11.785Z" transform="translate(-666.853 -261.126)" fill="#a0616a"/>
        <path id="Caminho_334" data-name="Caminho 334" d="M690.554,582.463l-.862,6.324,6.036.575-.862-7.761Z" transform="translate(-539.363 -452.967)" fill="#a0616a"/>
        <path id="Caminho_335" data-name="Caminho 335" d="M836.287,423.52l-1.437,2.012s-.862,8.623,0,11.5,2.587,16.1,2.587,16.96.287,1.437,0,1.725-1.15.287-.575.862.575,2.3.575,2.3v1.437l3.737,21.271s-2.3,2.587-.575,2.587,8.049,0,7.761-2.874l-.575-.288s-.862-18.972-.575-19.834a7.335,7.335,0,0,0,0-2.587s-.575-.862,0-1.15.575-2.587.575-2.587l2.587-17.534s2.3,11.785,3.737,12.935,1.15,4.024,1.15,4.024l1.15,25.3s-1.15,2.875,0,3.449,6.036,2.587,6.324-.287,1.725-27.883,1.725-29.032-.287-1.725,0-2.587-.287-.862,0-.862-.575-.862-.575-1.437V434.73a21.237,21.237,0,0,1,.575-3.449c.287-.575-.287-1.15,0-2.012s-.575-3.737-.575-3.737l-12.935-3.449Z" transform="translate(-691.708 -353.238)" fill="#2f2e41"/>
        <path id="Caminho_336" data-name="Caminho 336" d="M859.426,714.645s1.437-1.437-.575-1.437a9.358,9.358,0,0,0-3.737.862l-1.437,5.174s-5.893,4.743.718,4.168,5.605-.144,5.605-.144,2.012-.575,2.3-1.15-.575-8.911-.575-8.911S860.863,715.507,859.426,714.645Z" transform="translate(-704.785 -579.974)" fill="#2f2e41"/>
        <path id="Caminho_337" data-name="Caminho 337" d="M930.8,714.645s-1.437-1.437.575-1.437a9.358,9.358,0,0,1,3.737.862l1.437,5.174s5.893,4.743-.719,4.168-6.468-.144-6.468-.144-2.012-.575-2.3-1.15,1.437-8.911,1.437-8.911S929.362,715.507,930.8,714.645Z" transform="translate(-763.799 -579.974)" fill="#2f2e41"/>
        <circle id="Elipse_35" data-name="Elipse 35" cx="7.474" cy="7.474" r="7.474" transform="translate(140.843 5.03)" fill="#a0616a"/>
        <path id="Caminho_338" data-name="Caminho 338" d="M847.9,181.919s1.15,5.749,1.15,6.611,4.887,3.449,4.887,3.449l5.461-6.9s-3.449-4.887-3.449-6.036Z" transform="translate(-702.167 -163.953)" fill="#a0616a"/>
        <path id="Caminho_339" data-name="Caminho 339" d="M827.916,204.641s-2.505-.667-3.265-1.771c0,0-7.946,7.807-7.946,9.244l6.324,11.211s0,4.024.575,4.312,0,0,0,1.15-1.725,8.624-1.15,9.773,1.15.287.575,2.012-2.012,10.923-2.012,10.923,5.174-1.725,12.648,1.15,16.385-1.15,16.385-1.15-2.3-5.174-1.725-6.9-1.437-4.887-1.437-4.887l-1.437-26.445s2.012-11.785.575-12.36l-2.875-1.15-9.205-1.131S831.652,204.353,827.916,204.641Z" transform="translate(-677.874 -179.201)" fill="#f5f5f5"/>
        <path id="Caminho_340" data-name="Caminho 340" d="M817.33,250.526l-2.875,2.012s-1.437,4.312,0,6.324a14.741,14.741,0,0,1,2.012,4.887l5.749-.575Z" transform="translate(-675.625 -219.625)" fill="#f5f5f5"/>
        <path id="Caminho_341" data-name="Caminho 341" d="M824.946,115.418l-1.3-.519a8.844,8.844,0,0,1,6.482-2.725l-1.061-1.168s2.593-1.038,4.95,1.687a23.005,23.005,0,0,1,3.566,5.013h1.388l-.579,1.276,2.028,1.276-2.082-.229a7.062,7.062,0,0,1-.2,3.3l.056,1.008s-2.413-3.733-2.413-4.252v1.3s-1.3-1.168-1.3-1.946l-.707.908-.354-1.427-4.361,1.427.707-1.168-2.711.389,1.061-1.427s-3.064,1.687-3.182,3.114a7.656,7.656,0,0,1-1.65,3.244l-.707-1.3S821.528,117.364,824.946,115.418Z" transform="translate(-682.335 -110.812)" fill="#2f2e41"/>
        <rect id="Retângulo_38" data-name="Retângulo 38" width="114.227" height="80.241" transform="translate(30.117 62.555)" fill="#f2f2f2"/>
        <rect id="Retângulo_39" data-name="Retângulo 39" width="28.681" height="50.068" transform="translate(39.732 93.17)" fill="#3f3d56"/>
        <rect id="Retângulo_40" data-name="Retângulo 40" width="7.726" height="7.202" transform="translate(45.038 96.174)" fill="#f2f2f2"/>
        <rect id="Retângulo_41" data-name="Retângulo 41" width="7.726" height="7.202" transform="translate(55.383 96.174)" fill="#f2f2f2"/>
        <rect id="Retângulo_42" data-name="Retângulo 42" width="7.726" height="7.464" transform="translate(45.038 105.995)" fill="#f2f2f2"/>
        <rect id="Retângulo_43" data-name="Retângulo 43" width="7.726" height="7.464" transform="translate(55.383 105.995)" fill="#f2f2f2"/>
        <circle id="Elipse_36" data-name="Elipse 36" cx="1.824" cy="1.824" r="1.824" transform="translate(62.943 119.751)" fill="#f28705"/>
        <rect id="Retângulo_44" data-name="Retângulo 44" width="56.699" height="47.581" transform="translate(78.029 88.417)" fill="#3f3d56"/>
        <path id="Caminho_342" data-name="Caminho 342" d="M230.3,215.553H92.2l9.208-19.251,2.061-4.31,2.7-5.637,2.061-4.31,2.389-4.993H219.419l1.411,4.993,1.218,4.31,1.593,5.637,1.218,4.31Z" transform="translate(-74.019 -137.892)" fill="#3f3d56"/>
        <rect id="Retângulo_72" data-name="Retângulo 72" width="56.699" height="1.161" transform="translate(78.029 120.414)" fill="#f2f2f2"/>
        <rect id="Retângulo_75" data-name="Retângulo 75" width="0.995" height="10.61" transform="translate(105.882 88.417)" fill="#f2f2f2"/>
        <circle id="Elipse_37" data-name="Elipse 37" cx="1.658" cy="1.658" r="1.658" transform="translate(104.721 97.37)" fill="#f2f2f2"/>
        <path id="Caminho_343" data-name="Caminho 343" d="M271.222,203.938H155.337l2.061-4.31H270Z" transform="translate(-123.192 -155.476)" fill="#f28705"/>
        <path id="Caminho_344" data-name="Caminho 344" d="M257.284,248.913H133.831l2.061-4.31H256.066Z" transform="translate(-106.443 -190.504)" fill="#f28705"/>
        <path id="Caminho_345" data-name="Caminho 345" d="M826.394,262.223a21.986,21.986,0,0,0-1.317,8.515,4.489,4.489,0,0,0,.742,2.12h0l-20.393,9.682s-9.214.954-6.915,4.978,10.636-2.012,10.636-2.012,21.846-3.162,23.571-6.324,2.874-16.385,2.874-16.385Z" transform="translate(-663.417 -228.735)" fill="#a0616a"/>
        <path id="Caminho_346" data-name="Caminho 346" d="M922.69,208.937H927s3.162.575,4.024,6.324,1.725,7.186.862,7.186-11.211-.287-11.211-.575S922.69,208.937,922.69,208.937Z" transform="translate(-758.851 -187.235)" fill="#f5f5f5"/>
        <path id="Caminho_413" data-name="Caminho 413" d="M847.187,641.218h-2.194a.291.291,0,0,0-.291.291v.963a.291.291,0,0,0,.291.291h.364v1.443h1.467v-1.443h.364a.291.291,0,0,0,.291-.291v-.963a.291.291,0,0,0-.291-.291Z" transform="translate(-747.808 -539.541)" fill="#e6e6e6"/>
        <path id="Caminho_414" data-name="Caminho 414" d="M838.481,657.982a11.283,11.283,0,0,1-1.963-6.689.238.238,0,0,0-.186-.237v-.416h-2.318v.41h-.032a.238.238,0,0,0-.237.238c0,.006,0,.012,0,.017a10.3,10.3,0,0,1-1.85,6.847.655.655,0,0,0-.119.4l.253,7.839a.679.679,0,0,0,.673.655h5.242a.679.679,0,0,0,.673-.667l.1-7.611A1.373,1.373,0,0,0,838.481,657.982Z" transform="translate(-736.905 -547.49)" fill="#f28705"/>
        <path id="Caminho_416" data-name="Caminho 416" d="M842.2,714.273h-4.563a.468.468,0,0,0-.463.54l.689,4.482h3.959l.838-4.467a.469.469,0,0,0-.461-.555Z" transform="translate(-741.451 -601.177)" fill="#fff"/>
        <path id="Caminho_417" data-name="Caminho 417" d="M749.939,663.421H736.858c.914-4.945.7-10.915,0-17.336h13.081C749.254,652.506,749.049,658.477,749.939,663.421Z" transform="translate(-656.821 -543.648)" fill="#f28705"/>
        <circle id="Elipse_60" data-name="Elipse 60" cx="3.152" cy="3.152" r="3.152" transform="translate(83.504 107.481)" fill="#fff"/>
        <g id="Grupo_214" data-name="Grupo 214" transform="matrix(0.809, -0.588, 0.588, 0.809, 94.681, 108.249)">
          <path id="Caminho_409" data-name="Caminho 409" d="M10.68,21.707,0,14.154C3.6,10.645,6.878,5.649,10.011,0l10.68,7.554C16.423,12.4,12.808,17.157,10.68,21.707Z" fill="#f28705"/>
          <circle id="Elipse_59" data-name="Elipse 59" cx="3.152" cy="3.152" r="3.152" transform="translate(7.026 7.361)" fill="#fff"/>
        </g>
        <path id="Caminho_453" data-name="Caminho 453" d="M847.187,641.218h-2.194a.291.291,0,0,0-.291.291v.963a.291.291,0,0,0,.291.291h.364v1.443h1.467v-1.443h.364a.291.291,0,0,0,.291-.291v-.963a.291.291,0,0,0-.291-.291Z" transform="translate(-724.614 -539.541)" fill="#e6e6e6"/>
        <path id="Caminho_454" data-name="Caminho 454" d="M838.481,657.982a11.283,11.283,0,0,1-1.963-6.689.238.238,0,0,0-.186-.237v-.416h-2.318v.41h-.032a.238.238,0,0,0-.237.238c0,.006,0,.012,0,.017a10.3,10.3,0,0,1-1.85,6.847.655.655,0,0,0-.119.4l.253,7.839a.679.679,0,0,0,.673.655h5.242a.679.679,0,0,0,.673-.667l.1-7.611A1.373,1.373,0,0,0,838.481,657.982Z" transform="translate(-713.71 -547.49)" fill="#f28705"/>
        <path id="Caminho_455" data-name="Caminho 455" d="M842.2,714.273h-4.563a.468.468,0,0,0-.463.54l.689,4.482h3.959l.838-4.467a.469.469,0,0,0-.461-.555Z" transform="translate(-718.257 -601.177)" fill="#fff"/>
        <path id="Caminho_456" data-name="Caminho 456" d="M847.187,641.218h-2.194a.291.291,0,0,0-.291.291v.963a.291.291,0,0,0,.291.291h.364v1.443h1.467v-1.443h.364a.291.291,0,0,0,.291-.291v-.963a.291.291,0,0,0-.291-.291Z" transform="translate(-716.042 -539.541)" fill="#e6e6e6"/>
        <path id="Caminho_457" data-name="Caminho 457" d="M838.481,657.982a11.283,11.283,0,0,1-1.963-6.689.238.238,0,0,0-.186-.237v-.416h-2.318v.41h-.032a.238.238,0,0,0-.237.238c0,.006,0,.012,0,.017a10.3,10.3,0,0,1-1.85,6.847.655.655,0,0,0-.119.4l.253,7.839a.679.679,0,0,0,.673.655h5.242a.679.679,0,0,0,.673-.667l.1-7.611A1.373,1.373,0,0,0,838.481,657.982Z" transform="translate(-705.138 -547.49)" fill="#f28705"/>
        <path id="Caminho_458" data-name="Caminho 458" d="M842.2,714.273h-4.563a.468.468,0,0,0-.463.54l.689,4.482h3.959l.838-4.467a.469.469,0,0,0-.461-.555Z" transform="translate(-709.685 -601.177)" fill="#fff"/>
      </g>
    </g>
    <path id="Caminho_331" data-name="Caminho 331" d="M699.052,85.07A19.052,19.052,0,0,0,680,104.122c0,10.521,19.962,49.336,19.962,49.336S718.1,114.649,718.1,104.125A19.052,19.052,0,0,0,699.049,85.07Zm0,31.757a9.981,9.981,0,1,1,9.981-9.981A9.981,9.981,0,0,1,699.052,116.827Z" transform="translate(-551.265 146.21)" fill="#f28705"/>
  </g>
</svg>
