<svg xmlns="http://www.w3.org/2000/svg" width="79" height="42.631" viewBox="0 0 79 42.631">
  <g id="layer101" transform="translate(-809 -211.977)">
    <path id="Caminho_5" data-name="Caminho 5" d="M822.75,254.43c-.1-.077-.179-5.495-.179-12.012V230.584l-6.7-.051-6.722-.077-.077-3.5L809,223.428h68.521v-3.041l-1.585-.077c-1.048-.051-1.61-.179-1.61-.383,0-.46,6.568-8.025,6.926-7.949A72.154,72.154,0,0,1,888,220.029c0,.23-.434.332-1.585.332h-1.61l-.026,5.06v5.035l-27.4.077-27.4.051v24.025h-3.527A20.566,20.566,0,0,1,822.75,254.43Z" transform="translate(0 0)" fill="#f28704"/>
    <path id="Caminho_6" data-name="Caminho 6" d="M1700,1031.724a22.307,22.307,0,0,1,.92-2.633c.767-1.968,3.5-9.329,6.441-17.226l.69-1.866h7.693l4.012,10.709c2.2,5.878,4.013,10.811,4.013,10.99,0,.2-1.1.281-3.655.281h-3.655l-.486-1.789-.486-1.789H1708.2l-.562,1.789-.537,1.789h-3.553C1701.278,1031.98,1700,1031.878,1700,1031.724Zm13.725-8.869c-.767-2.76-1.84-6.185-1.891-6.108-.051.051-.537,1.533-1.073,3.322l-1,3.22h2.045C1713.648,1023.29,1713.853,1023.239,1713.725,1022.856Z" transform="translate(-868.228 -777.627)" fill="#f28704"/>
    <path id="Caminho_7" data-name="Caminho 7" d="M2709.026,1030.954c0-.051-.026-4.958-.026-10.939v-10.862l3.45-.077,3.476-.077v16.332l5.188-.051,5.163-.026.077,2.888.077,2.863h-8.716C2712.936,1031.005,2709.026,1030.98,2709.026,1030.954Z" transform="translate(-1851.44 -776.652)" fill="#f28704"/>
    <path id="Caminho_8" data-name="Caminho 8" d="M3500,1018v-10.99l3.476-.077a31.325,31.325,0,0,1,3.578.026c.051.051.1,5.035.1,11.067v10.939H3500Z" transform="translate(-2622.224 -774.616)" fill="#f28704"/>
  </g>
</svg>
